<?xml version="1.0" standalone="no"?>
<!DOCTYPE svg PUBLIC "-//W3C//DTD SVG 20010904//EN"
 "http://www.w3.org/TR/2001/REC-SVG-20010904/DTD/svg10.dtd">
<svg version="1.0" xmlns="http://www.w3.org/2000/svg"
 width="520.000000pt" height="520.000000pt" viewBox="0 0 520.000000 520.000000"
 preserveAspectRatio="xMidYMid meet">
<metadata>
Created by potrace 1.11, written by Peter Selinger 2001-2013
</metadata>
<g transform="translate(0.000000,520.000000) scale(0.100000,-0.100000)"
fill="#000000" stroke="none">
<path d="M2388 4943 c-17 -4 -18 -45 -18 -672 0 -368 -3 -683 -6 -700 -4 -17
-19 -45 -34 -61 -54 -58 -136 -28 -160 59 -6 22 -10 282 -10 693 l0 656 -82
-18 c-124 -27 -235 -57 -313 -83 l-70 -24 -3 -899 c-1 -557 2 -919 8 -952 11
-61 47 -138 90 -192 l30 -37 -88 5 c-66 3 -103 0 -147 -13 -39 -11 -309 -161
-822 -458 -666 -386 -763 -445 -763 -465 0 -61 114 -442 132 -442 5 0 246 137
536 304 290 167 541 311 559 320 75 38 163 7 163 -58 0 -73 -10 -81 -607 -426
-309 -179 -565 -329 -569 -332 -8 -8 80 -169 165 -301 37 -57 61 -86 71 -84 8
2 249 139 535 304 286 165 539 310 562 322 88 45 173 14 173 -62 0 -33 -26
-78 -59 -103 -8 -6 -257 -150 -552 -320 -296 -170 -538 -313 -539 -318 0 -12
302 -309 331 -324 24 -12 63 9 754 409 402 232 749 435 772 450 68 47 125 126
158 218 11 31 14 33 20 16 4 -11 20 -48 36 -82 54 -113 78 -129 884 -593 406
-234 745 -425 752 -425 30 0 343 303 343 332 0 5 -241 148 -536 318 -295 170
-550 319 -565 333 -85 71 -42 182 66 170 35 -4 159 -72 596 -324 304 -176 558
-320 565 -322 25 -6 242 352 231 381 -3 7 -257 158 -566 336 -355 205 -569
334 -581 351 -28 40 -34 74 -16 108 18 35 33 42 89 42 35 0 114 -42 590 -316
302 -174 556 -317 565 -318 13 -1 28 32 64 139 44 134 87 309 77 319 -12 12
-1511 872 -1549 889 -53 24 -197 34 -253 19 l-38 -11 30 34 c45 52 78 114 95
180 14 51 16 179 16 968 l0 908 -33 14 c-52 22 -206 64 -326 89 l-111 24 0
-667 c0 -632 -1 -668 -19 -708 -33 -71 -96 -85 -147 -32 l-29 30 -3 699 -2
698 -23 6 c-25 7 -393 6 -419 -1z m336 -2231 c31 -29 86 -67 123 -85 66 -31
72 -32 199 -32 l131 0 -33 -41 c-138 -168 -141 -419 -7 -582 28 -34 32 -43 17
-39 -141 39 -330 -15 -427 -123 -50 -56 -97 -134 -117 -195 -13 -38 -14 -39
-20 -15 -16 58 -76 158 -128 212 -106 112 -278 162 -416 121 -16 -4 -12 4 16
43 137 189 132 383 -15 576 l-33 43 130 0 c126 0 133 1 198 32 37 17 86 47
108 65 49 38 115 134 131 189 l12 39 38 -78 c26 -54 55 -94 93 -130z"/>
<path d="M2580 2745 c-21 -39 -118 -126 -176 -157 -62 -34 -153 -58 -216 -58
l-47 0 24 -49 c62 -123 70 -272 22 -403 l-24 -67 68 -11 c130 -22 262 -106
333 -212 l33 -48 45 61 c79 106 196 177 326 198 29 4 54 10 57 13 2 2 -7 37
-21 78 -24 67 -26 86 -22 185 4 99 8 118 36 179 18 38 32 70 32 72 0 2 -22 4
-48 4 -132 0 -293 88 -383 209 l-24 33 -15 -27z"/>
</g>
</svg>
